<svg width="161" height="25" viewBox="0 0 161 25" fill="none" xmlns="http://www.w3.org/2000/svg">
<path d="M8.87998 23.8901C7.71108 23.9047 6.55129 23.6828 5.47036 23.2377C4.38942 22.7926 3.40965 22.1335 2.58997 21.3001C1.795 20.4897 1.16051 19.5363 0.719975 18.49C0.27004 17.4014 0.0291678 16.2378 0.00996795 15.0601V2.94006C0.0072988 2.63476 0.0712395 2.33256 0.197315 2.0545C0.323391 1.77644 0.508581 1.52922 0.739979 1.33006C1.19503 0.903399 1.79619 0.667219 2.41997 0.670052C2.73318 0.670469 3.04316 0.733488 3.33167 0.855416C3.62018 0.977344 3.8814 1.15571 4.09998 1.38004C4.33141 1.59209 4.51591 1.85022 4.64164 2.13783C4.76736 2.42543 4.83151 2.73617 4.82998 3.05006V15.24C4.82836 15.7679 4.94094 16.2898 5.15998 16.77C5.36481 17.2396 5.66439 17.6617 6.03997 18.01C6.41022 18.3579 6.84053 18.6358 7.30997 18.8301C7.7959 19.0413 8.32012 19.1502 8.84998 19.15C9.40707 19.1541 9.95885 19.0417 10.47 18.82C10.9594 18.6087 11.4066 18.3106 11.79 17.9401C12.1679 17.5725 12.4643 17.1296 12.66 16.6401C12.8693 16.1398 12.9748 15.6023 12.97 15.0601V2.94006C12.9626 2.63306 13.0223 2.32816 13.1449 2.04662C13.2675 1.76509 13.4501 1.51371 13.68 1.31005C14.1469 0.891961 14.7533 0.663666 15.38 0.670052C16.008 0.684787 16.6047 0.947185 17.04 1.40005C17.2584 1.61522 17.4313 1.87225 17.5481 2.15575C17.665 2.43926 17.7234 2.74343 17.72 3.05006V15.35C17.7324 16.5203 17.483 17.6786 16.99 18.74C16.524 19.7629 15.8653 20.6864 15.05 21.46C14.2407 22.2364 13.2857 22.8448 12.24 23.2501C11.1718 23.6781 10.0308 23.8955 8.87998 23.8901Z" fill="white"/>
<path d="M36.89 0.779325C38.0406 0.775915 39.1812 0.993171 40.25 1.41932C41.2925 1.83074 42.2464 2.43838 43.06 3.20932C43.8671 3.98782 44.5217 4.91033 44.99 5.92932C45.4811 6.99142 45.7304 8.14923 45.72 9.31932V21.5893C45.7239 21.8936 45.6667 22.1956 45.5516 22.4774C45.4365 22.7591 45.2659 23.0148 45.05 23.2293C44.8332 23.4548 44.5742 23.6353 44.2876 23.7605C44.0011 23.8858 43.6926 23.9533 43.38 23.9593C42.7551 23.9722 42.1495 23.7429 41.69 23.3193C41.4575 23.1195 41.2723 22.8705 41.1478 22.5903C41.0232 22.3101 40.9625 22.0058 40.97 21.6993V9.58932C40.9745 9.04388 40.8691 8.50312 40.66 7.99933C40.4654 7.50923 40.1688 7.0661 39.79 6.69932C39.4036 6.33516 38.957 6.0408 38.47 5.82933C37.9588 5.60772 37.4071 5.49531 36.85 5.49933C36.3239 5.49478 35.8028 5.60038 35.32 5.80932C34.8482 6.00485 34.4148 6.28247 34.04 6.62932C33.6614 6.98515 33.3589 7.41413 33.151 7.89026C32.943 8.36638 32.8338 8.87976 32.83 9.39932V21.5893C32.8301 21.9015 32.7653 22.2103 32.6396 22.4961C32.5139 22.7819 32.3302 23.0384 32.1 23.2493C31.8821 23.4746 31.621 23.6535 31.3323 23.7755C31.0437 23.8975 30.7333 23.96 30.42 23.9593C29.7962 23.9622 29.195 23.726 28.74 23.2993C28.5088 23.1021 28.3237 22.8567 28.1976 22.5803C28.0714 22.3039 28.0074 22.0031 28.01 21.6993V9.58932C28.0325 8.4077 28.2767 7.24081 28.73 6.14932C29.1662 5.10322 29.7974 4.14961 30.59 3.33932C31.4146 2.50972 32.3967 1.85325 33.4786 1.40848C34.5604 0.963706 35.7203 0.739607 36.89 0.749327V0.779325Z" fill="white"/>
<path d="M58.6099 0.710081C58.9285 0.706821 59.2442 0.770067 59.5369 0.895765C59.8297 1.02146 60.0929 1.20686 60.3099 1.44009C60.5356 1.66391 60.7146 1.93031 60.8365 2.22386C60.9584 2.51741 61.0207 2.83224 61.0199 3.15008V21.5901C61.0259 21.9131 60.966 22.234 60.8439 22.5331C60.7219 22.8323 60.5402 23.1034 60.3099 23.3301C60.0894 23.5573 59.825 23.7374 59.5327 23.8594C59.2405 23.9815 58.9266 24.0429 58.6099 24.0401C58.2821 24.049 57.9558 23.9906 57.6514 23.8684C57.347 23.7463 57.0708 23.5631 56.8399 23.3301C56.6082 23.1045 56.4256 22.8335 56.3034 22.5341C56.1813 22.2347 56.1222 21.9134 56.1299 21.5901V3.19009C56.1326 2.86704 56.1988 2.54766 56.3248 2.2502C56.4509 1.95274 56.6343 1.68301 56.8646 1.45643C57.0949 1.22986 57.3675 1.05087 57.667 0.92967C57.9665 0.808474 58.2869 0.747452 58.6099 0.750089V0.710081Z" fill="white"/>
<path d="M87 0.709961C87.6463 0.712071 88.2678 0.958565 88.7399 1.39996C88.9913 1.61582 89.1916 1.88475 89.3265 2.18736C89.4614 2.48998 89.5274 2.81874 89.5199 3.14996V21.59C89.5241 21.9079 89.4557 22.2225 89.32 22.51C89.1857 22.8038 88.9955 23.0688 88.76 23.29C88.5189 23.5173 88.2418 23.7032 87.94 23.84C87.6432 23.9691 87.3235 24.0371 87 24.04C86.6995 24.034 86.4032 23.9681 86.1284 23.8462C85.8537 23.7242 85.606 23.5488 85.4 23.33C85.1637 23.1069 84.9767 22.8368 84.8509 22.5372C84.7252 22.2375 84.6636 21.9149 84.67 21.59V15.59H76.67V21.59C76.674 21.9128 76.6134 22.2332 76.4917 22.5323C76.37 22.8314 76.1896 23.103 75.9613 23.3314C75.733 23.5597 75.4613 23.74 75.1623 23.8617C74.8632 23.9834 74.5428 24.044 74.22 24.04C73.8827 24.0535 73.5462 23.9994 73.2302 23.8809C72.9142 23.7624 72.6251 23.5819 72.38 23.35C71.9065 22.8859 71.6367 22.2529 71.63 21.59V3.18997C71.6139 2.85224 71.6769 2.51542 71.8141 2.20638C71.9512 1.89733 72.1587 1.62461 72.42 1.40997C72.919 0.977188 73.5594 0.742369 74.22 0.749969C74.5448 0.744199 74.8672 0.806127 75.1668 0.931808C75.4664 1.05749 75.7365 1.24417 75.96 1.47997C76.1856 1.70378 76.3646 1.9702 76.4865 2.26375C76.6084 2.5573 76.6707 2.87213 76.67 3.18997V10.59H84.67V3.13997C84.6683 2.82018 84.7323 2.50346 84.8578 2.20935C84.9834 1.91524 85.1679 1.64998 85.4 1.42996C85.603 1.20661 85.8498 1.02743 86.1251 0.903564C86.4003 0.779698 86.6981 0.713792 87 0.709961Z" fill="white"/>
<path d="M102.53 0.70914C102.847 0.705419 103.161 0.768504 103.453 0.894275C103.744 1.02005 104.005 1.2057 104.22 1.43915C104.449 1.6611 104.631 1.92693 104.754 2.22075C104.878 2.51457 104.941 2.83034 104.94 3.14914V21.5891C104.946 21.9131 104.886 22.235 104.762 22.5344C104.638 22.8339 104.453 23.1044 104.22 23.3292C104.001 23.5561 103.739 23.7361 103.448 23.8581C103.157 23.9802 102.845 24.0418 102.53 24.0391C102.202 24.048 101.876 23.9896 101.571 23.8675C101.267 23.7454 100.991 23.5622 100.76 23.3292C100.519 23.1079 100.327 22.8389 100.196 22.5393C100.066 22.2397 99.9986 21.9161 100 21.5891V3.18915C100.01 2.53664 100.278 1.91455 100.744 1.4578C101.21 1.00104 101.837 0.746432 102.49 0.749148L102.53 0.70914Z" fill="white"/>
<path d="M127.43 22.3896C127.243 22.866 126.915 23.2741 126.49 23.5596C126.09 23.8441 125.611 23.9978 125.12 23.9996C124.632 23.9883 124.16 23.8239 123.77 23.5296C123.361 23.2371 123.034 22.8446 122.82 22.3896L115.19 4.02963C115.071 3.72876 115.015 3.40674 115.025 3.08342C115.036 2.76009 115.112 2.4423 115.25 2.14962C115.517 1.5456 116.008 1.0688 116.62 0.819621C116.924 0.702059 117.248 0.6467 117.573 0.65681C117.898 0.666919 118.218 0.742294 118.514 0.878474C118.81 1.01465 119.075 1.20886 119.294 1.44955C119.513 1.69024 119.682 1.97252 119.79 2.27963L125.12 14.7596L130.38 2.27963C130.489 1.96814 130.66 1.68227 130.884 1.43974C131.107 1.1972 131.378 1.00316 131.68 0.869624C131.973 0.732873 132.291 0.657873 132.615 0.649272C132.938 0.640671 133.26 0.698648 133.56 0.819621C134.168 1.06676 134.654 1.54506 134.91 2.14962C135.036 2.447 135.101 2.76667 135.101 3.08963C135.101 3.41258 135.036 3.73225 134.91 4.02963L127.43 22.3896Z" fill="white"/>
<path d="M158.05 19.0694C158.375 19.0648 158.697 19.1273 158.996 19.2529C159.295 19.3785 159.566 19.5646 159.79 19.7994C160.017 20.0244 160.197 20.2924 160.318 20.5878C160.44 20.8831 160.502 21.1999 160.5 21.5194C160.507 21.847 160.447 22.1725 160.325 22.4766C160.203 22.7807 160.021 23.0572 159.79 23.2894C159.563 23.5197 159.292 23.7013 158.993 23.8234C158.694 23.9455 158.373 24.0054 158.05 23.9994H147.61C147.295 23.9981 146.984 23.9347 146.694 23.8129C146.404 23.691 146.141 23.5131 145.92 23.2894C145.678 23.0635 145.486 22.7892 145.357 22.4842C145.227 22.1793 145.164 21.8505 145.17 21.5194V3.1494C145.173 2.51211 145.42 1.90011 145.86 1.43941C146.078 1.19151 146.348 0.99417 146.65 0.86118C146.952 0.72819 147.28 0.662745 147.61 0.669408H158.05C158.375 0.664852 158.697 0.727332 158.996 0.85294C159.295 0.978549 159.566 1.16458 159.79 1.3994C160.019 1.62929 160.199 1.90246 160.321 2.20293C160.443 2.50341 160.504 2.82516 160.5 3.1494C160.509 3.47578 160.45 3.80045 160.328 4.10323C160.206 4.40601 160.023 4.68044 159.79 4.90941C159.561 5.13466 159.288 5.31174 158.99 5.43024C158.691 5.54874 158.371 5.60625 158.05 5.5994H150.05V9.7594H155.64C155.96 9.75837 156.276 9.82257 156.57 9.94809C156.864 10.0736 157.13 10.2578 157.35 10.4894C157.585 10.7155 157.771 10.9875 157.897 11.2886C158.022 11.5896 158.085 11.9132 158.08 12.2394C158.086 12.5643 158.025 12.8869 157.899 13.1866C157.773 13.4863 157.586 13.7563 157.35 13.9794C157.127 14.2065 156.861 14.3863 156.567 14.5083C156.273 14.6303 155.958 14.6919 155.64 14.6894H150V19.0694H158.05Z" fill="white"/>
</svg>
