<svg width="76" height="68" viewBox="0 0 76 68" fill="none" xmlns="http://www.w3.org/2000/svg">
<path fill-rule="evenodd" clip-rule="evenodd" d="M47.6399 42.0695L38.4399 36.8395L29.2399 42.0695V46.9695H47.6399V42.0695ZM47.6399 56.5095C47.5899 53.9495 47.6399 54.2095 47.6399 51.6195H29.2799C29.2799 54.2295 29.2799 53.9795 29.2799 56.5595C33.7399 60.1595 36.3499 61.9995 38.6699 62.0495C40.9899 62.0995 43.2099 60.1995 47.6599 56.5095H47.6399ZM25.8999 59.5895C24.6499 58.8195 24.8999 57.4795 24.8999 56.2495V42.3395C24.8999 41.0695 24.6799 39.6595 26.0099 38.8995L35.1499 33.6995L38.1499 31.9795L38.5099 31.7695L49.9299 38.5195C52.2199 39.8695 52.0399 39.7195 52.0399 42.2495V55.9095C52.0399 57.2095 52.3299 58.7795 51.0399 59.5895C38.1499 68.9795 39.4799 70.0295 25.8999 59.5895Z" fill="#F78F1E"/>
<path fill-rule="evenodd" clip-rule="evenodd" d="M19.83 25.6792L19.64 25.5692C18.4632 24.794 17.1261 24.2954 15.7291 24.1108C14.332 23.9263 12.9114 24.0606 11.5737 24.5036C10.236 24.9467 9.01599 25.687 8.00534 26.669C6.99469 27.651 6.21962 28.8492 5.7383 30.1736C5.25697 31.4981 5.0819 32.9143 5.22623 34.3161C5.37056 35.7178 5.83054 37.0687 6.57164 38.2672C7.31274 39.4658 8.31572 40.4809 9.50526 41.2364C10.6948 41.9918 12.04 42.468 13.44 42.6292C15.7035 42.8794 17.9809 42.3003 19.85 40.9992C20.085 40.8351 20.3501 40.7188 20.6301 40.6571C20.9101 40.5954 21.1995 40.5895 21.4818 40.6396C21.7641 40.6898 22.0337 40.795 22.2753 40.9494C22.517 41.1037 22.7258 41.3042 22.89 41.5392C23.0541 41.7743 23.1704 42.0394 23.2321 42.3194C23.2938 42.5994 23.2997 42.8888 23.2496 43.1711C23.1994 43.4533 23.0942 43.723 22.9398 43.9646C22.7854 44.2062 22.585 44.4151 22.35 44.5792C20.3085 46.009 17.916 46.8553 15.4295 47.0271C12.9431 47.1988 10.4569 46.6895 8.23828 45.554C6.01965 44.4184 4.15254 42.6996 2.83772 40.5822C1.52291 38.4649 0.810141 36.0292 0.776062 33.5371C0.741984 31.045 1.38789 28.5907 2.64432 26.4382C3.90074 24.2858 5.72016 22.5165 7.90691 21.3207C10.0937 20.1249 12.565 19.5478 15.0552 19.6515C17.5454 19.7552 19.9602 20.5358 22.0399 21.9092C28.8199 25.9092 37.7199 31.3992 44.4899 35.3592L56.72 42.5092L56.91 42.6292C58.0867 43.4045 59.4238 43.9031 60.8208 44.0876C62.2178 44.2722 63.6385 44.1379 64.9762 43.6948C66.3139 43.2517 67.5339 42.5114 68.5446 41.5294C69.5552 40.5474 70.3303 39.3492 70.8116 38.0248C71.293 36.7004 71.468 35.2841 71.3237 33.8824C71.1794 32.4806 70.7194 31.1298 69.9783 29.9312C69.2372 28.7327 68.2342 27.7176 67.0446 26.9621C65.8551 26.2066 64.5099 25.7304 63.1099 25.5692C60.8465 25.3199 58.5694 25.899 56.7 27.1992C56.2234 27.4974 55.6504 27.601 55.0996 27.4883C54.5488 27.3757 54.0624 27.0556 53.7411 26.5943C53.4198 26.1329 53.2882 25.5657 53.3737 25.01C53.4591 24.4543 53.755 23.9528 54.2 23.6092C56.9382 21.7038 60.274 20.8548 63.59 21.2192C65.6494 21.451 67.6294 22.1466 69.3813 23.2538C71.1332 24.361 72.6112 25.851 73.7043 27.6116C74.7975 29.3723 75.4772 31.3579 75.6925 33.4191C75.9078 35.4803 75.653 37.5634 74.9473 39.512C74.2415 41.4605 73.1032 43.2237 71.6179 44.669C70.1327 46.1143 68.3391 47.2041 66.372 47.8564C64.4049 48.5087 62.3155 48.7065 60.261 48.4351C58.2064 48.1637 56.2402 47.43 54.51 46.2892L43 39.5892C35.52 35.2192 27.2999 30.0992 19.84 25.7192" fill="#F78F1E"/>
<path fill-rule="evenodd" clip-rule="evenodd" d="M44.1499 15.0496V20.1296L38.6899 23.3496L33.2299 20.1296V13.3496L38.6899 9.65965L44.1499 13.3496V15.0496ZM29.8799 23.3896L31.8799 24.7096L37.46 27.7796C37.5862 27.868 37.7201 27.945 37.8599 28.0096C38.1328 28.1216 38.425 28.1794 38.7199 28.1796C39.0181 28.1784 39.3133 28.1208 39.5899 28.0096C39.724 27.9499 39.8514 27.8762 39.9699 27.7896L47.5299 23.3896C47.8407 23.1875 48.0953 22.91 48.2701 22.5831C48.4449 22.2562 48.5343 21.8903 48.5299 21.5196V12.1896C48.5343 11.8189 48.4449 11.4531 48.2701 11.1262C48.0953 10.7993 47.8407 10.5218 47.5299 10.3196L45.5299 8.99965L48.6599 4.23964C48.8175 3.99997 48.9264 3.73163 48.9802 3.4499C49.0341 3.16818 49.032 2.8786 48.9739 2.5977C48.9159 2.3168 48.8031 2.05009 48.642 1.81279C48.4809 1.57548 48.2746 1.37223 48.0349 1.21464C47.7953 1.05706 47.5269 0.948221 47.2452 0.894345C46.9635 0.840469 46.6739 0.84261 46.393 0.900647C46.1121 0.958683 45.8454 1.07147 45.6081 1.23259C45.3708 1.3937 45.1675 1.59998 45.01 1.83964L41.9099 6.58964L39.9099 5.25964L39.6 5.07965H39.5299C39.2553 4.96084 38.9592 4.89957 38.6599 4.89964C38.3638 4.89863 38.0708 4.95996 37.7999 5.07965H37.7199C37.6099 5.13704 37.503 5.20046 37.3999 5.26963L35.3999 6.58964L32.2899 1.87964C31.9717 1.39562 31.4742 1.05785 30.9069 0.94064C30.3396 0.82343 29.749 0.936375 29.2649 1.25464C28.7809 1.5729 28.4432 2.07041 28.3259 2.63771C28.2087 3.205 28.3217 3.79562 28.6399 4.27964L31.7799 9.03964L29.7799 10.3596C29.4692 10.5618 29.2146 10.8393 29.0398 11.1662C28.8649 11.4931 28.7756 11.8589 28.7799 12.2296V21.5596C28.7929 21.933 28.9006 22.2969 29.0931 22.617C29.2855 22.9372 29.5563 23.2031 29.8799 23.3896Z" fill="#F78F1E"/>
</svg>
